<svg width="214" height="88" viewBox="0 0 214 88" fill="none" xmlns="http://www.w3.org/2000/svg">
<path d="M80.3308 68.3549C74.4841 68.3549 69.7444 63.6152 69.7444 57.7685L69.7444 55.7793C69.7444 49.9326 74.4841 45.1929 80.3308 45.1929L116.62 45.1929V68.3549H80.3308Z" fill="#CBFFF6"/>
<path d="M126.438 45.1929C132.285 45.1929 137.024 49.9326 137.024 55.7793V57.7685C137.024 63.6152 132.285 68.3549 126.438 68.3549H103.384L103.384 45.1929L126.438 45.1929Z" fill="#36F0CF"/>
<path d="M97.6427 4.25043L47 41C40.9944 45.3445 46.7136 54.4809 53.5 51.5L103.5 15.5L153 51L153.779 51.4662C160.252 55.3394 166.697 46.4445 161 41.5L109.368 4.23533C105.866 1.70798 101.138 1.71407 97.6427 4.25043Z" fill="white" stroke="white"/>
</svg>
